<svg id="attachment" xmlns="http://www.w3.org/2000/svg" width="15.413" height="14.225" viewBox="0 0 15.413 14.225">
  <g id="Group_1468" data-name="Group 1468" transform="translate(0 0)">
    <path id="Path_1915" data-name="Path 1915" d="M10.866,21.355a2.766,2.766,0,0,0-1.583.82L2.89,28.569A1.924,1.924,0,0,0,2.328,29.6,1.8,1.8,0,0,0,4.4,31.673a1.916,1.916,0,0,0,1.029-.56l5.833-5.833a.288.288,0,0,0,0-.407l-.407-.407a.288.288,0,0,0-.407,0L4.557,30.357a.646.646,0,0,1-.913-.913l6.531-6.531a1.45,1.45,0,0,1,1.032-.428,3.32,3.32,0,0,1,2.347,2.285,1.453,1.453,0,0,1-.41,1.015L6.336,32.828a2.606,2.606,0,0,1-1.535.808,4.265,4.265,0,0,1-3.23-1.2A4.5,4.5,0,0,1,.453,29.4a2.565,2.565,0,0,1,.772-1.585l6.332-6.332a.288.288,0,0,0,0-.407l-.407-.407a.288.288,0,0,0-.407,0L.35,27.06A3.6,3.6,0,0,0-.707,29.641,4.657,4.657,0,0,0,.73,33.262a5.233,5.233,0,0,0,3.9,1.541,3.446,3.446,0,0,0,2.457-1.1l6.882-7.12a2.61,2.61,0,0,0,.734-1.835C14.706,23.2,12.458,21.153,10.866,21.355Z" transform="translate(0.707 -20.583)" fill="#a19d9d"/>
  </g>
</svg>
