<svg xmlns="http://www.w3.org/2000/svg" width="15.72" height="15.72" viewBox="0 0 15.72 15.72"><defs><style>.a{fill:#005459;}</style></defs><path class="a" d="M14.459,10.319a8.925,8.925,0,0,1-2.8-.446,1.281,1.281,0,0,0-1.246.263L8.642,11.469A9.768,9.768,0,0,1,4.25,7.078l1.3-1.722a1.271,1.271,0,0,0,.313-1.287A8.939,8.939,0,0,1,5.41,1.261,1.263,1.263,0,0,0,4.148,0H1.261A1.263,1.263,0,0,0,0,1.261,14.475,14.475,0,0,0,14.459,15.72a1.263,1.263,0,0,0,1.261-1.261V11.58A1.263,1.263,0,0,0,14.459,10.319Z"/></svg>