<svg xmlns="http://www.w3.org/2000/svg" width="14.727" height="14.732" viewBox="0 0 14.727 14.732"><defs><style>.a{fill:#005459;}</style></defs><g transform="translate(0 0)"><path class="a" d="M11.124.99A7.365,7.365,0,0,0,3.758,13.747,7.365,7.365,0,0,0,11.124.99Zm1.9,9.6a6.448,6.448,0,1,1-2.359-8.8A6.453,6.453,0,0,1,13.022,10.591Z" transform="translate(-0.077 0)"/></g><g transform="translate(4.142 4.146)"><path class="a" d="M150.385,146.488a3.223,3.223,0,1,0-.322,2.445A3.194,3.194,0,0,0,150.385,146.488Zm-1.119,1.985a2.3,2.3,0,1,1,.229-1.747A2.288,2.288,0,0,1,149.267,148.473Z" transform="translate(-144.052 -144.1)"/></g><g transform="translate(6.193 8.519)"><g transform="translate(0 0)"><rect class="a" width="6.33" height="0.921" transform="translate(0 5.482) rotate(-60.007)"/></g></g><g transform="translate(1.409 3.038)"><g transform="translate(0 0)"><rect class="a" width="0.921" height="6.328" transform="matrix(0.866, -0.5, 0.5, 0.866, 0, 0.46)"/></g></g><g transform="translate(7.364 4.146)"><rect class="a" width="6.328" height="0.921"/></g></svg>