<svg xmlns="http://www.w3.org/2000/svg" xmlns:xlink="http://www.w3.org/1999/xlink" width="19.332" height="23.198" viewBox="0 0 19.332 23.198"><defs><style>.a{fill:url(#a);}</style><linearGradient id="a" x1="0.5" x2="0.5" y2="1" gradientUnits="objectBoundingBox"><stop offset="0" stop-color="#fff"/><stop offset="1" stop-color="#959595"/></linearGradient></defs><g transform="translate(-42.666)"><g transform="translate(42.666)"><path class="a" d="M80.915,316.582H74.149V316.1a.483.483,0,0,0-.483-.483h-.483v-1.088c.961-.44,1.87-2.146,2.4-4.609a.482.482,0,0,0-.472-.586H70.284a.482.482,0,0,0-.472.586c.534,2.463,1.443,4.169,2.4,4.609v1.088h-.483a.483.483,0,0,0-.483.483v.483H64.483a.483.483,0,1,0,0,.967h6.766v.483a.483.483,0,0,0,.483.483h1.933a.483.483,0,0,0,.483-.483v-.483h6.766a.483.483,0,1,0,0-.967Z" transform="translate(-63.033 -295.317)"/><path class="a" d="M315.163,313.916a.484.484,0,0,0,.362.163.471.471,0,0,0,.166-.03,9.71,9.71,0,0,0,4.883-3.979.484.484,0,0,0-.411-.738h-3.411a.484.484,0,0,0-.475.391,13.814,13.814,0,0,1-1.182,3.651A.484.484,0,0,0,315.163,313.916Z" transform="translate(-302.701 -295.317)"/><path class="a" d="M192.131,5.136a.485.485,0,0,0,.377.18h4.831a.482.482,0,0,0,.472-.586C197.188,1.857,196.054,0,194.924,0s-2.265,1.857-2.888,4.731A.483.483,0,0,0,192.131,5.136Z" transform="translate(-185.258)"/><path class="a" d="M187.453,145.432a.484.484,0,0,0,.48-.427,26.38,26.38,0,0,0,0-5.912.484.484,0,0,0-.48-.427H181.98a.484.484,0,0,0-.48.427,26.378,26.378,0,0,0,0,5.912.484.484,0,0,0,.48.427Z" transform="translate(-175.05 -132.383)"/><path class="a" d="M48.016,145.272a.483.483,0,0,0,.121-.375,26.27,26.27,0,0,1,0-5.7.483.483,0,0,0-.481-.535H43.624a.484.484,0,0,0-.459.33,9.581,9.581,0,0,0,0,6.105.484.484,0,0,0,.459.33h4.033A.484.484,0,0,0,48.016,145.272Z" transform="translate(-42.666 -132.383)"/><path class="a" d="M73.733,17.317h3.411a.484.484,0,0,0,.475-.391A13.816,13.816,0,0,1,78.8,13.275a.483.483,0,0,0-.6-.675,9.71,9.71,0,0,0-4.883,3.979.484.484,0,0,0,.411.738Z" transform="translate(-71.864 -12)"/><path class="a" d="M353.494,139a.484.484,0,0,0-.459-.33H349a.483.483,0,0,0-.48.535,26.271,26.271,0,0,1,0,5.7.483.483,0,0,0,.48.535h4.033a.484.484,0,0,0,.459-.33,9.581,9.581,0,0,0,0-6.105Z" transform="translate(-334.661 -132.383)"/><path class="a" d="M77.144,309.333H73.733a.484.484,0,0,0-.411.738,9.71,9.71,0,0,0,4.883,3.979.471.471,0,0,0,.166.03.483.483,0,0,0,.429-.7,13.813,13.813,0,0,1-1.182-3.651A.484.484,0,0,0,77.144,309.333Z" transform="translate(-71.864 -295.317)"/><path class="a" d="M316.279,16.924a.484.484,0,0,0,.475.391h3.411a.484.484,0,0,0,.411-.738,9.71,9.71,0,0,0-4.883-3.979.483.483,0,0,0-.6.675A13.819,13.819,0,0,1,316.279,16.924Z" transform="translate(-302.702 -11.999)"/></g></g></svg>