<svg id="photo" xmlns="http://www.w3.org/2000/svg" width="13.395" height="13.395" viewBox="0 0 13.395 13.395">
  <path id="Path_1913" data-name="Path 1913" d="M11.721,0H1.674A1.676,1.676,0,0,0,0,1.674V11.721A1.676,1.676,0,0,0,1.674,13.4H11.721A1.676,1.676,0,0,0,13.4,11.721V1.674A1.676,1.676,0,0,0,11.721,0ZM1.674,1.116H11.721a.559.559,0,0,1,.558.558V5.629L10.441,3.791a.558.558,0,0,0-.789,0L5.721,7.722,4.3,6.3a.558.558,0,0,0-.789,0l-2.4,2.4V1.674a.559.559,0,0,1,.558-.558ZM11.721,12.279H1.674a.559.559,0,0,1-.558-.558V10.278L3.907,7.487,7.14,10.72a.558.558,0,1,0,.789-.789L6.51,8.512l3.536-3.536,2.233,2.233v4.513A.559.559,0,0,1,11.721,12.279Zm0,0" fill="#a19d9d"/>
  <path id="Path_1914" data-name="Path 1914" d="M66.233,65.116A1.116,1.116,0,1,1,65.116,64,1.116,1.116,0,0,1,66.233,65.116Zm0,0" transform="translate(-61.767 -61.767)" fill="#a19d9d"/>
</svg>
