<svg xmlns="http://www.w3.org/2000/svg" xmlns:xlink="http://www.w3.org/1999/xlink" width="17.528" height="18" viewBox="0 0 17.528 18"><defs><style>.a{fill:url(#a);}</style><linearGradient id="a" x1="0.5" x2="0.5" y2="1" gradientUnits="objectBoundingBox"><stop offset="0" stop-color="#fff"/><stop offset="1" stop-color="#959595"/></linearGradient></defs><g transform="translate(-6.71)"><g transform="translate(6.71)"><path class="a" d="M23.935,10.973,22.281,9.679A6.514,6.514,0,0,0,22.32,9a6.317,6.317,0,0,0-.039-.68l1.656-1.294a.811.811,0,0,0,.2-1.033L22.412,3.015a.8.8,0,0,0-1-.358l-1.952.784a6.693,6.693,0,0,0-1.172-.68L18,.69A.8.8,0,0,0,17.2,0H13.75a.794.794,0,0,0-.794.684l-.3,2.078a6.9,6.9,0,0,0-1.17.68L9.531,2.657a.813.813,0,0,0-.988.352L6.821,5.989a.806.806,0,0,0,.2,1.039L8.67,8.321a5.934,5.934,0,0,0,0,1.358L7.014,10.974a.811.811,0,0,0-.2,1.033L8.54,14.984a.8.8,0,0,0,1,.358l1.952-.784a6.752,6.752,0,0,0,1.172.68l.3,2.07a.8.8,0,0,0,.795.691H17.2A.8.8,0,0,0,18,17.316l.3-2.077a6.932,6.932,0,0,0,1.17-.681l1.957.786a.806.806,0,0,0,.294.056.792.792,0,0,0,.694-.407L24.136,12A.81.81,0,0,0,23.935,10.973ZM15.475,12a3,3,0,1,1,3-3A3,3,0,0,1,15.475,12Z" transform="translate(-6.71)"/></g></g></svg>