<svg xmlns="http://www.w3.org/2000/svg" xmlns:xlink="http://www.w3.org/1999/xlink" width="22.351" height="22.351" viewBox="0 0 22.351 22.351"><defs><style>.a{fill:url(#a);}</style><linearGradient id="a" x1="0.5" x2="0.5" y2="1" gradientUnits="objectBoundingBox"><stop offset="0" stop-color="#fff"/><stop offset="1" stop-color="#959595"/></linearGradient></defs><path class="a" d="M11.176,0A11.176,11.176,0,1,0,22.351,11.176,11.188,11.188,0,0,0,11.176,0Zm0,3.26A5.355,5.355,0,1,1,5.821,8.614,5.361,5.361,0,0,1,11.176,3.26Zm0,17.229a9.294,9.294,0,0,1-7.442-3.737,17.535,17.535,0,0,1,7.442-1.85,17.536,17.536,0,0,1,7.442,1.85A9.294,9.294,0,0,1,11.176,20.488Z"/></svg>