<svg xmlns="http://www.w3.org/2000/svg" width="12.945" height="12.919" viewBox="0 0 12.945 12.919">
  <g id="globe" transform="translate(0 -0.316)">
    <path id="Path_26441" data-name="Path 26441" d="M231.816,346.9c.99-.141,1.858-1.174,2.4-2.7a11.752,11.752,0,0,0-2.4-.283Zm0,0" transform="translate(-225.112 -333.661)" fill="#fff"/>
    <path id="Path_26442" data-name="Path 26442" d="M279.7,359.957c.059-.017.117-.034.175-.053l.145-.049c.057-.02.114-.04.17-.061l.144-.057.165-.069.142-.065c.053-.025.107-.051.159-.078l.139-.072.155-.085.136-.08.15-.092c.044-.028.089-.057.132-.087s.1-.067.145-.1l.128-.092.14-.11c.041-.033.082-.066.123-.1s.091-.078.135-.118.079-.069.117-.105.087-.084.13-.126.075-.073.112-.111l.02-.022a7.775,7.775,0,0,0-1.585-.61,5.741,5.741,0,0,1-1.479,2.4l.056-.014Zm0,0" transform="translate(-271.413 -346.964)" fill="#fff"/>
    <path id="Path_26443" data-name="Path 26443" d="M338.8,231.684h-2.774a12,12,0,0,1-.467,3.2,8.047,8.047,0,0,1,1.756.7A6.464,6.464,0,0,0,338.8,231.684Zm0,0" transform="translate(-325.855 -224.677)" fill="#fff"/>
    <path id="Path_26444" data-name="Path 26444" d="M231.816,112.029h3a11.574,11.574,0,0,0-.455-3.087,12.186,12.186,0,0,1-2.549.3Zm0,0" transform="translate(-225.112 -105.484)" fill="#fff"/>
    <path id="Path_26445" data-name="Path 26445" d="M231.816.316V3.3a11.758,11.758,0,0,0,2.4-.283c-.546-1.526-1.414-2.559-2.4-2.7Zm0,0" transform="translate(-225.112)" fill="#fff"/>
    <path id="Path_26446" data-name="Path 26446" d="M231.816,234.467a12.194,12.194,0,0,1,2.549.3,11.575,11.575,0,0,0,.455-3.087h-3Zm0,0" transform="translate(-225.112 -224.676)" fill="#fff"/>
    <path id="Path_26447" data-name="Path 26447" d="M337.314,80.844a8.046,8.046,0,0,1-1.756.7,12,12,0,0,1,.467,3.2H338.8a6.466,6.466,0,0,0-1.485-3.9Zm0,0" transform="translate(-325.854 -78.199)" fill="#fff"/>
    <path id="Path_26448" data-name="Path 26448" d="M282.523,8.587l-.02-.021c-.037-.038-.075-.074-.112-.111s-.086-.085-.13-.126-.078-.069-.117-.105-.09-.08-.136-.118-.081-.066-.122-.1-.094-.075-.141-.111l-.127-.093c-.048-.035-.1-.069-.146-.1l-.131-.086c-.05-.032-.1-.064-.151-.094l-.135-.079-.156-.086-.139-.072c-.053-.027-.107-.053-.162-.078l-.141-.064c-.055-.024-.11-.046-.165-.069l-.143-.057c-.056-.021-.113-.042-.17-.061l-.145-.05c-.058-.019-.116-.036-.175-.053l-.145-.041-.056-.014a5.742,5.742,0,0,1,1.479,2.4,7.765,7.765,0,0,0,1.587-.611Zm0,0" transform="translate(-271.375 -6.293)" fill="#fff"/>
    <path id="Path_26449" data-name="Path 26449" d="M0,84.743H2.774a12,12,0,0,1,.467-3.2,8.036,8.036,0,0,1-1.756-.7A6.464,6.464,0,0,0,0,84.743Zm0,0" transform="translate(0 -78.199)" fill="#fff"/>
    <path id="Path_26450" data-name="Path 26450" d="M135.1,346.9v-2.983a11.759,11.759,0,0,0-2.4.283C133.241,345.723,134.109,346.756,135.1,346.9Zm0,0" transform="translate(-128.857 -333.661)" fill="#fff"/>
    <path id="Path_26451" data-name="Path 26451" d="M114.926,231.684h-3a11.57,11.57,0,0,0,.455,3.087,12.177,12.177,0,0,1,2.549-.3Zm0,0" transform="translate(-108.684 -224.677)" fill="#fff"/>
    <path id="Path_26452" data-name="Path 26452" d="M135.1.316c-.99.141-1.858,1.174-2.4,2.7a11.743,11.743,0,0,0,2.4.283Zm0,0" transform="translate(-128.857)" fill="#fff"/>
    <path id="Path_26453" data-name="Path 26453" d="M114.926,109.245a12.186,12.186,0,0,1-2.549-.3,11.569,11.569,0,0,0-.455,3.087h3Zm0,0" transform="translate(-108.685 -105.484)" fill="#fff"/>
    <path id="Path_26454" data-name="Path 26454" d="M65.254,6.789,65.2,6.8l-.146.042-.174.053-.146.05c-.057.02-.113.04-.169.061l-.144.057-.164.069-.142.065c-.053.025-.107.051-.159.077l-.139.072-.154.085q-.069.039-.136.08l-.149.093-.132.087c-.049.033-.1.067-.145.1l-.128.093c-.047.036-.093.073-.14.11s-.083.066-.123.1-.09.078-.135.117-.079.069-.118.106-.087.084-.13.126-.075.073-.112.111l-.02.022a7.767,7.767,0,0,0,1.585.61,5.739,5.739,0,0,1,1.478-2.4Zm0,0" transform="translate(-60.393 -6.285)" fill="#fff"/>
    <path id="Path_26455" data-name="Path 26455" d="M62.36,358.3c.043.042.086.085.13.126s.078.069.117.1.09.08.136.118.081.066.122.1.093.075.142.111l.126.093c.048.035.1.069.146.1l.131.086c.05.032.1.064.151.094l.135.079q.078.044.156.086l.139.072c.053.027.107.053.162.078l.141.064c.055.024.11.046.165.069l.143.057c.056.022.113.042.17.061l.145.049c.058.019.116.036.175.053l.145.042.056.014a5.742,5.742,0,0,1-1.479-2.4,7.768,7.768,0,0,0-1.585.61l.02.021C62.285,358.232,62.323,358.268,62.36,358.3Zm0,0" transform="translate(-60.431 -346.914)" fill="#fff"/>
    <path id="Path_26456" data-name="Path 26456" d="M1.485,235.582a8.048,8.048,0,0,1,1.756-.7,12,12,0,0,1-.467-3.2H0a6.465,6.465,0,0,0,1.485,3.9Zm0,0" transform="translate(0 -224.675)" fill="#fff"/>
  </g>
</svg>
