<svg xmlns="http://www.w3.org/2000/svg" width="50.921" height="50.807" viewBox="0 0 50.921 50.807">
  <g id="no-incoming-call" transform="translate(0.5 0.501)">
    <g id="Group_1516" data-name="Group 1516" transform="translate(0 0)">
      <g id="Group_1515" data-name="Group 1515" transform="translate(0 0)">
        <path id="Path_26459" data-name="Path 26459" d="M216.1,22.136h12.452a1.384,1.384,0,0,0,1.384-1.384V17.985a1.384,1.384,0,0,0-1.384-1.384H222.78L235.064,4.318a1.383,1.383,0,0,0,0-1.957L233.108.4a1.383,1.383,0,0,0-1.957,0L218.867,12.689V6.917a1.384,1.384,0,0,0-1.384-1.384h-2.767a1.384,1.384,0,0,0-1.384,1.384V19.369A2.767,2.767,0,0,0,216.1,22.136Z" transform="translate(-185.663 0)" fill="none" stroke="#bababa" stroke-width="1"/>
        <path id="Path_26460" data-name="Path 26460" d="M45.81,32.692a28.28,28.28,0,0,1-8.882-1.415,4.065,4.065,0,0,0-3.948.832l-5.6,4.228A30.965,30.965,0,0,1,13.465,22.425l4.107-5.457a4.018,4.018,0,0,0,.986-4.076A28.4,28.4,0,0,1,17.14,4a4,4,0,0,0-4-4H4A4,4,0,0,0,0,4a45.862,45.862,0,0,0,45.81,45.81,4,4,0,0,0,4-4V36.689A4,4,0,0,0,45.81,32.692Z" transform="translate(0 0)" fill="none" stroke="#bababa" stroke-width="1"/>
      </g>
    </g>
  </g>
</svg>
