<svg xmlns="http://www.w3.org/2000/svg" width="13.737" height="13.737" viewBox="0 0 13.737 13.737">
  <g id="call-down" transform="translate(0 0)">
    <g id="Group_1516" data-name="Group 1516" transform="translate(0 0)">
      <g id="Group_1515" data-name="Group 1515" transform="translate(0 0)">
        <path id="Path_26459" data-name="Path 26459" d="M218.675,0h-3.434a.382.382,0,0,0-.382.382v.763a.382.382,0,0,0,.382.382h1.592l-3.388,3.388a.382.382,0,0,0,0,.54l.54.54a.382.382,0,0,0,.54,0l3.388-3.388V4.2a.382.382,0,0,0,.382.382h.763a.382.382,0,0,0,.382-.382V.763A.763.763,0,0,0,218.675,0Z" transform="translate(-205.701 0)" fill="#bababa"/>
        <path id="Path_26460" data-name="Path 26460" d="M12.635,9.017a7.8,7.8,0,0,1-2.45-.39,1.121,1.121,0,0,0-1.089.23L7.552,10.022A8.541,8.541,0,0,1,3.714,6.185L4.847,4.68a1.108,1.108,0,0,0,.272-1.124A7.833,7.833,0,0,1,4.727,1.1,1.1,1.1,0,0,0,3.625,0H1.1A1.1,1.1,0,0,0,0,1.1,12.649,12.649,0,0,0,12.635,13.737a1.1,1.1,0,0,0,1.1-1.1V10.119A1.1,1.1,0,0,0,12.635,9.017Z" transform="translate(0 0)" fill="#bababa"/>
      </g>
    </g>
  </g>
</svg>
