<svg xmlns="http://www.w3.org/2000/svg" width="29.216" height="19.287" viewBox="0 0 29.216 19.287">
  <g id="flag" transform="translate(0 -87.005)">
    <path id="Path_26473" data-name="Path 26473" d="M29.216,105.677a.617.617,0,0,1-.615.615H.615A.617.617,0,0,1,0,105.677V87.62A.617.617,0,0,1,.615,87H28.6a.617.617,0,0,1,.615.615Z" fill="#fff7ee"/>
    <g id="Group_1537" data-name="Group 1537" transform="translate(0 87.005)">
      <path id="Path_26474" data-name="Path 26474" d="M226.026,87.006H209.372v1.855h17.269v-1.24A.617.617,0,0,0,226.026,87.006Z" transform="translate(-197.425 -87.006)" fill="#e02424"/>
      <path id="Path_26475" data-name="Path 26475" d="M197.914,209.2v1.157a.7.7,0,0,1-.693.7h17.962V209.2H197.914Z" transform="translate(-185.967 -202.225)" fill="#e02424"/>
      <rect id="Rectangle_1429" data-name="Rectangle 1429" width="29.216" height="1.855" transform="translate(0 10.459)" fill="#e02424"/>
    </g>
    <rect id="Rectangle_1430" data-name="Rectangle 1430" width="1.876" height="1.855" transform="translate(0 97.464)" opacity="0.1"/>
    <g id="Group_1538" data-name="Group 1538" transform="translate(0 90.491)">
      <rect id="Rectangle_1431" data-name="Rectangle 1431" width="29.216" height="1.855" transform="translate(0 10.459)" fill="#e02424"/>
      <path id="Path_26476" data-name="Path 26476" d="M29.216,393.727v-1.24H0v1.24a.617.617,0,0,0,.615.615H28.6A.617.617,0,0,0,29.216,393.727Z" transform="translate(0 -378.542)" fill="#e02424"/>
      <rect id="Rectangle_1432" data-name="Rectangle 1432" width="17.268" height="1.855" transform="translate(11.947)" fill="#e02424"/>
    </g>
    <path id="Path_26477" data-name="Path 26477" d="M.615,87.006A.617.617,0,0,0,0,87.621v8.213H11.91a.7.7,0,0,0,.693-.7v-8.13Z" transform="translate(0 -0.001)" fill="#0853a4"/>
    <path id="Path_26478" data-name="Path 26478" d="M2.553,87.006H.615A.617.617,0,0,0,0,87.621v8.213H1.938V87.621A.617.617,0,0,1,2.553,87.006Z" transform="translate(0 -0.001)" opacity="0.1"/>
    <g id="Group_1539" data-name="Group 1539" transform="translate(1.097 87.843)">
      <path id="Path_26479" data-name="Path 26479" d="M37.234,116.232a.085.085,0,0,1-.041-.01l-.168-.09-.168.09a.085.085,0,0,1-.041.01.087.087,0,0,1-.052-.017.091.091,0,0,1-.035-.088l.032-.191-.136-.135a.092.092,0,0,1-.022-.092.088.088,0,0,1,.071-.061l.187-.028.084-.174a.087.087,0,0,1,.158,0l.084.174.187.028a.089.089,0,0,1,.071.061.092.092,0,0,1-.022.092l-.136.135.032.191a.091.091,0,0,1-.035.088A.087.087,0,0,1,37.234,116.232Z" transform="translate(-35.608 -114.612)" fill="#fff"/>
      <path id="Path_26480" data-name="Path 26480" d="M37.234,143.653a.085.085,0,0,1-.041-.01l-.168-.09-.168.09a.085.085,0,0,1-.041.01.087.087,0,0,1-.052-.017.091.091,0,0,1-.035-.088l.032-.191-.136-.135a.092.092,0,0,1-.022-.092.089.089,0,0,1,.071-.061l.187-.028.084-.174a.087.087,0,0,1,.158,0l.084.174.187.028a.089.089,0,0,1,.071.061.091.091,0,0,1-.022.092l-.136.135.032.191a.091.091,0,0,1-.035.088A.086.086,0,0,1,37.234,143.653Z" transform="translate(-35.608 -140.468)" fill="#fff"/>
      <path id="Path_26481" data-name="Path 26481" d="M37.234,171.075a.087.087,0,0,1-.041-.01l-.168-.09-.168.09a.085.085,0,0,1-.041.01.087.087,0,0,1-.052-.017.091.091,0,0,1-.035-.088l.032-.191-.136-.135a.092.092,0,0,1-.022-.093.089.089,0,0,1,.071-.061l.187-.028.084-.174a.087.087,0,0,1,.158,0l.084.174.187.028a.089.089,0,0,1,.071.061.092.092,0,0,1-.022.093l-.136.135.032.191a.091.091,0,0,1-.035.088A.087.087,0,0,1,37.234,171.075Z" transform="translate(-35.608 -166.325)" fill="#fff"/>
      <path id="Path_26482" data-name="Path 26482" d="M37.234,198.493a.087.087,0,0,1-.041-.01l-.168-.09-.168.09a.085.085,0,0,1-.041.01.086.086,0,0,1-.052-.017.091.091,0,0,1-.035-.088l.032-.191-.136-.135a.092.092,0,0,1-.022-.093.089.089,0,0,1,.071-.061l.187-.028.084-.174a.087.087,0,0,1,.158,0l.084.174.187.028a.089.089,0,0,1,.071.061.092.092,0,0,1-.022.093l-.136.135.032.191a.091.091,0,0,1-.035.088A.086.086,0,0,1,37.234,198.493Z" transform="translate(-35.608 -192.179)" fill="#fff"/>
      <path id="Path_26483" data-name="Path 26483" d="M19.865,102.521a.085.085,0,0,1-.041-.01l-.168-.09-.168.09a.085.085,0,0,1-.041.01.087.087,0,0,1-.052-.017.091.091,0,0,1-.035-.088l.032-.191-.136-.135a.092.092,0,0,1-.022-.093.088.088,0,0,1,.071-.061l.187-.028.084-.174a.087.087,0,0,1,.158,0l.084.174.187.028a.089.089,0,0,1,.071.061.092.092,0,0,1-.022.093l-.136.135.032.191a.091.091,0,0,1-.035.088A.087.087,0,0,1,19.865,102.521Z" transform="translate(-19.23 -101.683)" fill="#fff"/>
      <path id="Path_26484" data-name="Path 26484" d="M19.865,129.942a.087.087,0,0,1-.041-.01l-.168-.09-.168.09a.087.087,0,0,1-.093-.007.091.091,0,0,1-.035-.088l.032-.191-.136-.135a.092.092,0,0,1-.022-.093.088.088,0,0,1,.071-.061l.187-.028.084-.174a.087.087,0,0,1,.158,0l.084.174.187.028a.089.089,0,0,1,.071.061.092.092,0,0,1-.022.093l-.136.135.032.191a.091.091,0,0,1-.035.088A.087.087,0,0,1,19.865,129.942Z" transform="translate(-19.23 -127.539)" fill="#fff"/>
      <path id="Path_26485" data-name="Path 26485" d="M19.865,157.363a.087.087,0,0,1-.041-.01l-.168-.09-.168.09a.087.087,0,0,1-.093-.007.091.091,0,0,1-.035-.088l.032-.191-.136-.135a.092.092,0,0,1-.022-.092.088.088,0,0,1,.071-.061l.187-.028.084-.174a.087.087,0,0,1,.158,0l.084.174.187.028a.089.089,0,0,1,.071.061.092.092,0,0,1-.022.092l-.136.135.032.191a.091.091,0,0,1-.035.088A.087.087,0,0,1,19.865,157.363Z" transform="translate(-19.23 -153.396)" fill="#fff"/>
      <path id="Path_26486" data-name="Path 26486" d="M19.865,184.782a.085.085,0,0,1-.041-.01l-.168-.09-.168.09a.087.087,0,0,1-.093-.007.091.091,0,0,1-.035-.088l.032-.191-.136-.135a.092.092,0,0,1-.022-.093.088.088,0,0,1,.071-.061l.187-.028.084-.174a.087.087,0,0,1,.158,0l.084.174.187.028a.089.089,0,0,1,.071.061.092.092,0,0,1-.022.093l-.136.135.032.191a.091.091,0,0,1-.035.088A.086.086,0,0,1,19.865,184.782Z" transform="translate(-19.23 -179.25)" fill="#fff"/>
      <path id="Path_26487" data-name="Path 26487" d="M19.865,212.2a.087.087,0,0,1-.041-.01l-.168-.09-.168.09a.087.087,0,0,1-.093-.007.091.091,0,0,1-.035-.088l.032-.191-.136-.135a.092.092,0,0,1-.022-.093.088.088,0,0,1,.071-.061l.187-.028.084-.174a.087.087,0,0,1,.158,0l.084.174.187.028a.089.089,0,0,1,.071.061.092.092,0,0,1-.022.093l-.136.135.032.191a.091.091,0,0,1-.035.088A.086.086,0,0,1,19.865,212.2Z" transform="translate(-19.23 -205.106)" fill="#fff"/>
      <path id="Path_26488" data-name="Path 26488" d="M70.949,116.232a.085.085,0,0,1-.041-.01l-.168-.09-.168.09a.085.085,0,0,1-.041.01.087.087,0,0,1-.052-.017.091.091,0,0,1-.035-.088l.032-.191-.136-.135a.092.092,0,0,1-.022-.092.089.089,0,0,1,.071-.061l.188-.028.084-.174a.087.087,0,0,1,.158,0l.084.174.187.028a.089.089,0,0,1,.071.061.092.092,0,0,1-.022.092l-.136.135.032.191a.091.091,0,0,1-.035.088A.087.087,0,0,1,70.949,116.232Z" transform="translate(-67.399 -114.612)" fill="#fff"/>
      <path id="Path_26489" data-name="Path 26489" d="M70.949,143.653a.085.085,0,0,1-.041-.01l-.168-.09-.168.09a.085.085,0,0,1-.041.01.087.087,0,0,1-.052-.017.091.091,0,0,1-.035-.088l.032-.191-.136-.135a.092.092,0,0,1-.022-.092.089.089,0,0,1,.071-.061l.188-.028.084-.174a.087.087,0,0,1,.158,0l.084.174.187.028a.089.089,0,0,1,.071.061.091.091,0,0,1-.022.092l-.136.135.032.191a.091.091,0,0,1-.035.088A.086.086,0,0,1,70.949,143.653Z" transform="translate(-67.399 -140.468)" fill="#fff"/>
      <path id="Path_26490" data-name="Path 26490" d="M70.949,171.075a.087.087,0,0,1-.041-.01l-.168-.09-.168.09a.085.085,0,0,1-.041.01.087.087,0,0,1-.052-.017.091.091,0,0,1-.035-.088l.032-.191-.136-.135a.092.092,0,0,1-.022-.093.089.089,0,0,1,.071-.061l.188-.028.084-.174a.087.087,0,0,1,.158,0l.084.174.187.028a.089.089,0,0,1,.071.061.092.092,0,0,1-.022.093l-.136.135.032.191a.091.091,0,0,1-.035.088A.087.087,0,0,1,70.949,171.075Z" transform="translate(-67.399 -166.325)" fill="#fff"/>
      <path id="Path_26491" data-name="Path 26491" d="M70.949,198.493a.087.087,0,0,1-.041-.01l-.168-.09-.168.09a.085.085,0,0,1-.041.01.086.086,0,0,1-.052-.017.091.091,0,0,1-.035-.088l.032-.191-.136-.135a.092.092,0,0,1-.022-.093.089.089,0,0,1,.071-.061l.188-.028.084-.174a.087.087,0,0,1,.158,0l.084.174.187.028a.089.089,0,0,1,.071.061.092.092,0,0,1-.022.093L71,198.2l.032.191a.091.091,0,0,1-.035.088A.086.086,0,0,1,70.949,198.493Z" transform="translate(-67.399 -192.179)" fill="#fff"/>
      <path id="Path_26492" data-name="Path 26492" d="M53.581,102.521a.084.084,0,0,1-.041-.01l-.168-.09-.168.09a.085.085,0,0,1-.041.01.086.086,0,0,1-.052-.017.091.091,0,0,1-.035-.088l.032-.191-.136-.135a.092.092,0,0,1-.022-.093.089.089,0,0,1,.071-.061l.187-.028.084-.174a.087.087,0,0,1,.158,0l.084.174.187.028a.089.089,0,0,1,.071.061.092.092,0,0,1-.022.093l-.136.135.032.191a.091.091,0,0,1-.035.088A.087.087,0,0,1,53.581,102.521Z" transform="translate(-51.023 -101.683)" fill="#fff"/>
      <path id="Path_26493" data-name="Path 26493" d="M53.581,129.942a.087.087,0,0,1-.041-.01l-.168-.09-.168.09a.086.086,0,0,1-.041.01.087.087,0,0,1-.052-.017.091.091,0,0,1-.035-.088l.032-.191-.136-.135a.092.092,0,0,1-.022-.093.089.089,0,0,1,.071-.061l.187-.028.084-.174a.087.087,0,0,1,.158,0l.084.174.187.028a.089.089,0,0,1,.071.061.092.092,0,0,1-.022.093l-.136.135.032.191a.091.091,0,0,1-.035.088A.087.087,0,0,1,53.581,129.942Z" transform="translate(-51.023 -127.539)" fill="#fff"/>
      <path id="Path_26494" data-name="Path 26494" d="M53.581,157.363a.087.087,0,0,1-.041-.01l-.168-.09-.168.09a.087.087,0,0,1-.093-.007.091.091,0,0,1-.035-.088l.032-.191-.136-.135a.092.092,0,0,1-.022-.092.088.088,0,0,1,.071-.061l.187-.028.084-.174a.087.087,0,0,1,.158,0l.084.174.187.028a.089.089,0,0,1,.071.061.092.092,0,0,1-.022.092l-.136.135.032.191a.091.091,0,0,1-.035.088A.087.087,0,0,1,53.581,157.363Z" transform="translate(-51.023 -153.396)" fill="#fff"/>
      <path id="Path_26495" data-name="Path 26495" d="M53.581,184.782a.085.085,0,0,1-.041-.01l-.168-.09-.168.09a.087.087,0,0,1-.093-.007.091.091,0,0,1-.035-.088l.032-.191-.136-.135a.092.092,0,0,1-.022-.093.089.089,0,0,1,.071-.061l.187-.028.084-.174a.087.087,0,0,1,.158,0l.084.174.187.028a.089.089,0,0,1,.071.061.092.092,0,0,1-.022.093l-.136.135.032.191a.091.091,0,0,1-.035.088A.087.087,0,0,1,53.581,184.782Z" transform="translate(-51.023 -179.25)" fill="#fff"/>
      <path id="Path_26496" data-name="Path 26496" d="M53.581,212.2a.086.086,0,0,1-.041-.01l-.168-.09-.168.09a.087.087,0,0,1-.093-.007.091.091,0,0,1-.035-.088l.032-.191-.136-.135a.092.092,0,0,1-.022-.093.089.089,0,0,1,.071-.061l.187-.028.084-.174a.087.087,0,0,1,.158,0l.084.174.187.028a.089.089,0,0,1,.071.061.092.092,0,0,1-.022.093l-.136.135.032.191a.091.091,0,0,1-.035.088A.086.086,0,0,1,53.581,212.2Z" transform="translate(-51.023 -205.106)" fill="#fff"/>
      <path id="Path_26497" data-name="Path 26497" d="M104.664,116.232a.085.085,0,0,1-.041-.01l-.168-.09-.168.09a.085.085,0,0,1-.041.01.086.086,0,0,1-.052-.017.091.091,0,0,1-.035-.088l.032-.191-.136-.135a.092.092,0,0,1-.022-.092.088.088,0,0,1,.071-.061l.187-.028.084-.174a.087.087,0,0,1,.158,0l.084.174.188.028a.089.089,0,0,1,.071.061.092.092,0,0,1-.022.092l-.136.135.032.191a.091.091,0,0,1-.035.088A.087.087,0,0,1,104.664,116.232Z" transform="translate(-99.191 -114.612)" fill="#fff"/>
      <path id="Path_26498" data-name="Path 26498" d="M104.664,143.653a.085.085,0,0,1-.041-.01l-.168-.09-.168.09a.085.085,0,0,1-.041.01.087.087,0,0,1-.052-.017.091.091,0,0,1-.035-.088l.032-.191-.136-.135a.092.092,0,0,1-.022-.092.089.089,0,0,1,.071-.061l.187-.028.084-.174a.087.087,0,0,1,.158,0l.084.174.188.028a.089.089,0,0,1,.071.061.092.092,0,0,1-.022.092l-.136.135.032.191a.091.091,0,0,1-.035.088A.086.086,0,0,1,104.664,143.653Z" transform="translate(-99.191 -140.468)" fill="#fff"/>
      <path id="Path_26499" data-name="Path 26499" d="M104.664,171.075a.087.087,0,0,1-.041-.01l-.168-.09-.168.09a.085.085,0,0,1-.041.01.087.087,0,0,1-.052-.017.091.091,0,0,1-.035-.088l.032-.191-.136-.135a.092.092,0,0,1-.022-.093.089.089,0,0,1,.071-.061l.187-.028.084-.174a.087.087,0,0,1,.158,0l.084.174.188.028a.089.089,0,0,1,.071.061.092.092,0,0,1-.022.093l-.136.135.032.191a.091.091,0,0,1-.035.088A.087.087,0,0,1,104.664,171.075Z" transform="translate(-99.191 -166.325)" fill="#fff"/>
      <path id="Path_26500" data-name="Path 26500" d="M104.664,198.493a.087.087,0,0,1-.041-.01l-.168-.09-.168.09a.086.086,0,0,1-.093-.007.091.091,0,0,1-.035-.088l.032-.191-.136-.135a.092.092,0,0,1-.022-.093.089.089,0,0,1,.071-.061l.187-.028.084-.174a.087.087,0,0,1,.158,0l.084.174.188.028a.089.089,0,0,1,.071.061.092.092,0,0,1-.022.093l-.136.135.032.191a.091.091,0,0,1-.035.088A.086.086,0,0,1,104.664,198.493Z" transform="translate(-99.191 -192.179)" fill="#fff"/>
      <path id="Path_26501" data-name="Path 26501" d="M87.3,102.521a.084.084,0,0,1-.041-.01l-.168-.09-.168.09a.085.085,0,0,1-.041.01.086.086,0,0,1-.052-.017.091.091,0,0,1-.035-.088l.032-.191-.136-.135a.092.092,0,0,1-.022-.093.089.089,0,0,1,.071-.061l.188-.028.084-.174a.087.087,0,0,1,.158,0l.084.174.188.028a.088.088,0,0,1,.071.061.092.092,0,0,1-.022.093l-.136.135.032.191a.091.091,0,0,1-.035.088A.086.086,0,0,1,87.3,102.521Z" transform="translate(-82.813 -101.683)" fill="#fff"/>
      <path id="Path_26502" data-name="Path 26502" d="M87.3,129.942a.087.087,0,0,1-.041-.01l-.168-.09-.168.09a.086.086,0,0,1-.041.01.087.087,0,0,1-.052-.017.091.091,0,0,1-.035-.088l.032-.191-.136-.135a.092.092,0,0,1-.022-.093.089.089,0,0,1,.071-.061l.188-.028.084-.174a.087.087,0,0,1,.158,0l.084.174.188.028a.088.088,0,0,1,.071.061.092.092,0,0,1-.022.093l-.136.135.032.191a.091.091,0,0,1-.035.088A.087.087,0,0,1,87.3,129.942Z" transform="translate(-82.813 -127.539)" fill="#fff"/>
      <path id="Path_26503" data-name="Path 26503" d="M87.3,157.363a.087.087,0,0,1-.041-.01l-.168-.09-.168.09a.087.087,0,0,1-.093-.007.091.091,0,0,1-.035-.088l.032-.191-.136-.135a.092.092,0,0,1-.022-.092.088.088,0,0,1,.071-.061l.188-.028.084-.174a.087.087,0,0,1,.158,0l.084.174.188.028a.088.088,0,0,1,.071.061.092.092,0,0,1-.022.092l-.136.135.032.191a.091.091,0,0,1-.035.088A.087.087,0,0,1,87.3,157.363Z" transform="translate(-82.813 -153.396)" fill="#fff"/>
      <path id="Path_26504" data-name="Path 26504" d="M87.3,184.782a.085.085,0,0,1-.041-.01l-.168-.09-.168.09a.085.085,0,0,1-.041.01.086.086,0,0,1-.052-.017.091.091,0,0,1-.035-.088l.032-.191-.136-.135a.092.092,0,0,1-.022-.093.089.089,0,0,1,.071-.061l.188-.028.084-.174a.087.087,0,0,1,.158,0l.084.174.188.028a.088.088,0,0,1,.071.061.092.092,0,0,1-.022.093l-.136.135.032.191a.091.091,0,0,1-.035.088A.086.086,0,0,1,87.3,184.782Z" transform="translate(-82.813 -179.25)" fill="#fff"/>
      <path id="Path_26505" data-name="Path 26505" d="M87.3,212.2a.086.086,0,0,1-.041-.01l-.168-.09-.168.09a.087.087,0,0,1-.093-.007.091.091,0,0,1-.035-.088l.032-.191-.136-.135a.092.092,0,0,1-.022-.093.089.089,0,0,1,.071-.061l.188-.028.084-.174a.087.087,0,0,1,.158,0l.084.174.188.028a.088.088,0,0,1,.071.061.092.092,0,0,1-.022.093l-.136.135.032.191a.091.091,0,0,1-.035.088A.086.086,0,0,1,87.3,212.2Z" transform="translate(-82.813 -205.106)" fill="#fff"/>
      <path id="Path_26506" data-name="Path 26506" d="M138.378,116.232a.085.085,0,0,1-.041-.01l-.168-.09-.168.09a.087.087,0,0,1-.093-.007.091.091,0,0,1-.035-.088l.032-.191-.136-.135a.092.092,0,0,1-.022-.092.088.088,0,0,1,.071-.061l.187-.028.084-.174a.087.087,0,0,1,.158,0l.084.174.187.028a.088.088,0,0,1,.071.061.091.091,0,0,1-.022.092l-.136.135.032.191a.091.091,0,0,1-.035.088A.086.086,0,0,1,138.378,116.232Z" transform="translate(-130.981 -114.612)" fill="#fff"/>
      <path id="Path_26507" data-name="Path 26507" d="M138.378,143.653a.085.085,0,0,1-.041-.01l-.168-.09-.168.09a.085.085,0,0,1-.041.01.087.087,0,0,1-.052-.017.091.091,0,0,1-.035-.088l.032-.191-.136-.135a.091.091,0,0,1-.022-.092.089.089,0,0,1,.071-.061l.187-.028.084-.174a.087.087,0,0,1,.158,0l.084.174.187.028a.089.089,0,0,1,.071.061.091.091,0,0,1-.022.092l-.136.135.032.191a.091.091,0,0,1-.035.088A.085.085,0,0,1,138.378,143.653Z" transform="translate(-130.981 -140.468)" fill="#fff"/>
      <path id="Path_26508" data-name="Path 26508" d="M138.378,171.075a.087.087,0,0,1-.041-.01l-.168-.09-.168.09a.086.086,0,0,1-.041.01.087.087,0,0,1-.052-.017.091.091,0,0,1-.035-.088l.032-.191-.136-.135a.092.092,0,0,1-.022-.093.089.089,0,0,1,.071-.061l.187-.028.084-.174a.087.087,0,0,1,.158,0l.084.174.187.028a.089.089,0,0,1,.071.061.092.092,0,0,1-.022.093l-.136.135.032.191a.091.091,0,0,1-.035.088A.086.086,0,0,1,138.378,171.075Z" transform="translate(-130.981 -166.325)" fill="#fff"/>
      <path id="Path_26509" data-name="Path 26509" d="M138.378,198.493a.087.087,0,0,1-.041-.01l-.168-.09-.168.09a.087.087,0,0,1-.093-.007.091.091,0,0,1-.035-.088l.032-.191-.136-.135a.092.092,0,0,1-.022-.093.089.089,0,0,1,.071-.061l.187-.028.084-.174a.087.087,0,0,1,.158,0l.084.174.187.028a.089.089,0,0,1,.071.061.092.092,0,0,1-.022.093l-.136.135.032.191a.091.091,0,0,1-.035.088A.085.085,0,0,1,138.378,198.493Z" transform="translate(-130.981 -192.179)" fill="#fff"/>
      <path id="Path_26510" data-name="Path 26510" d="M121.011,102.521a.085.085,0,0,1-.041-.01l-.168-.09-.168.09a.085.085,0,0,1-.041.01.087.087,0,0,1-.052-.017.091.091,0,0,1-.035-.088l.032-.191-.136-.135a.092.092,0,0,1-.022-.093.089.089,0,0,1,.071-.061l.188-.028.084-.174a.087.087,0,0,1,.158,0l.084.174.187.028a.089.089,0,0,1,.071.061.092.092,0,0,1-.022.093l-.136.135.032.191a.091.091,0,0,1-.035.088A.087.087,0,0,1,121.011,102.521Z" transform="translate(-114.605 -101.683)" fill="#fff"/>
      <path id="Path_26511" data-name="Path 26511" d="M121.011,129.942a.088.088,0,0,1-.041-.01l-.168-.09-.168.09a.086.086,0,0,1-.041.01.088.088,0,0,1-.052-.017.091.091,0,0,1-.035-.088l.032-.191-.136-.135a.092.092,0,0,1-.022-.093.089.089,0,0,1,.071-.061l.188-.028.084-.174a.087.087,0,0,1,.158,0l.084.174.187.028a.089.089,0,0,1,.071.061.092.092,0,0,1-.022.093l-.136.135.032.191a.091.091,0,0,1-.035.088A.087.087,0,0,1,121.011,129.942Z" transform="translate(-114.605 -127.539)" fill="#fff"/>
      <path id="Path_26512" data-name="Path 26512" d="M121.011,157.363a.088.088,0,0,1-.041-.01l-.168-.09-.168.09a.087.087,0,0,1-.093-.007.091.091,0,0,1-.035-.088l.032-.191-.136-.135a.092.092,0,0,1-.022-.092.089.089,0,0,1,.071-.061l.188-.028.084-.174a.087.087,0,0,1,.158,0l.084.174.187.028a.089.089,0,0,1,.071.061.091.091,0,0,1-.022.092l-.136.135.032.191a.091.091,0,0,1-.035.088A.087.087,0,0,1,121.011,157.363Z" transform="translate(-114.605 -153.396)" fill="#fff"/>
      <path id="Path_26513" data-name="Path 26513" d="M121.011,184.782a.086.086,0,0,1-.041-.01l-.168-.09-.168.09a.086.086,0,0,1-.041.01.087.087,0,0,1-.052-.017.091.091,0,0,1-.035-.088l.032-.191-.136-.135a.092.092,0,0,1-.022-.093.089.089,0,0,1,.071-.061l.188-.028.084-.174a.087.087,0,0,1,.158,0l.084.174.187.028a.089.089,0,0,1,.071.061.092.092,0,0,1-.022.093l-.136.135.032.191a.091.091,0,0,1-.035.088A.086.086,0,0,1,121.011,184.782Z" transform="translate(-114.605 -179.25)" fill="#fff"/>
      <path id="Path_26514" data-name="Path 26514" d="M121.011,212.2a.087.087,0,0,1-.041-.01l-.168-.09-.168.09a.087.087,0,0,1-.093-.007.091.091,0,0,1-.035-.088l.032-.191-.136-.135a.092.092,0,0,1-.022-.093.089.089,0,0,1,.071-.061l.188-.028.084-.174a.087.087,0,0,1,.158,0l.084.174.187.028a.089.089,0,0,1,.071.061.092.092,0,0,1-.022.093l-.136.135.032.191a.091.091,0,0,1-.035.088A.086.086,0,0,1,121.011,212.2Z" transform="translate(-114.605 -205.106)" fill="#fff"/>
      <path id="Path_26515" data-name="Path 26515" d="M172.095,116.232a.085.085,0,0,1-.041-.01l-.168-.09-.168.09a.086.086,0,0,1-.093-.007.09.09,0,0,1-.035-.088l.032-.191-.136-.135a.092.092,0,0,1-.022-.092.089.089,0,0,1,.071-.061l.187-.028.084-.174a.087.087,0,0,1,.158,0l.084.174.188.028a.088.088,0,0,1,.071.061.092.092,0,0,1-.022.092l-.136.135.032.191a.091.091,0,0,1-.035.088A.086.086,0,0,1,172.095,116.232Z" transform="translate(-162.774 -114.612)" fill="#fff"/>
      <path id="Path_26516" data-name="Path 26516" d="M172.095,143.653a.085.085,0,0,1-.041-.01l-.168-.09-.168.09a.085.085,0,0,1-.041.01.086.086,0,0,1-.052-.017.09.09,0,0,1-.035-.088l.032-.191-.136-.135a.092.092,0,0,1-.022-.092.089.089,0,0,1,.071-.061l.187-.028.084-.174a.087.087,0,0,1,.158,0l.084.174.188.028a.089.089,0,0,1,.071.061.091.091,0,0,1-.022.092l-.136.135.032.191a.091.091,0,0,1-.035.088A.086.086,0,0,1,172.095,143.653Z" transform="translate(-162.774 -140.468)" fill="#fff"/>
      <path id="Path_26517" data-name="Path 26517" d="M172.095,171.075a.087.087,0,0,1-.041-.01l-.168-.09-.168.09a.086.086,0,0,1-.093-.007.09.09,0,0,1-.035-.088l.032-.191-.136-.135a.092.092,0,0,1-.022-.093.089.089,0,0,1,.071-.061l.187-.028.084-.174a.087.087,0,0,1,.158,0l.084.174.188.028a.089.089,0,0,1,.071.061.092.092,0,0,1-.022.093l-.136.135.032.191a.091.091,0,0,1-.035.088A.086.086,0,0,1,172.095,171.075Z" transform="translate(-162.774 -166.325)" fill="#fff"/>
      <path id="Path_26518" data-name="Path 26518" d="M172.095,198.493a.087.087,0,0,1-.041-.01l-.168-.09-.168.09a.086.086,0,0,1-.093-.007.09.09,0,0,1-.035-.088l.032-.191-.136-.135a.092.092,0,0,1-.022-.093.089.089,0,0,1,.071-.061l.187-.028.084-.174a.087.087,0,0,1,.158,0l.084.174.188.028a.089.089,0,0,1,.071.061.092.092,0,0,1-.022.093l-.136.135.032.191a.091.091,0,0,1-.035.088A.086.086,0,0,1,172.095,198.493Z" transform="translate(-162.774 -192.179)" fill="#fff"/>
      <path id="Path_26519" data-name="Path 26519" d="M154.727,102.521a.084.084,0,0,1-.041-.01l-.168-.09-.168.09a.085.085,0,0,1-.041.01.086.086,0,0,1-.052-.017.091.091,0,0,1-.035-.088l.032-.191-.136-.135A.092.092,0,0,1,154.1,102a.089.089,0,0,1,.071-.061l.187-.028.084-.174a.087.087,0,0,1,.158,0l.084.174.188.028a.089.089,0,0,1,.071.061.092.092,0,0,1-.022.093l-.136.135.032.191a.091.091,0,0,1-.035.088A.087.087,0,0,1,154.727,102.521Z" transform="translate(-146.397 -101.683)" fill="#fff"/>
      <path id="Path_26520" data-name="Path 26520" d="M154.727,129.942a.087.087,0,0,1-.041-.01l-.168-.09-.168.09a.087.087,0,0,1-.093-.007.091.091,0,0,1-.035-.088l.032-.191-.136-.135a.092.092,0,0,1-.022-.093.089.089,0,0,1,.071-.061l.187-.028.084-.174a.087.087,0,0,1,.158,0l.084.174.188.028a.089.089,0,0,1,.071.061.092.092,0,0,1-.022.093l-.136.135.032.191a.091.091,0,0,1-.035.088A.087.087,0,0,1,154.727,129.942Z" transform="translate(-146.397 -127.539)" fill="#fff"/>
      <path id="Path_26521" data-name="Path 26521" d="M154.727,157.363a.087.087,0,0,1-.041-.01l-.168-.09-.168.09a.087.087,0,0,1-.093-.007.091.091,0,0,1-.035-.088l.032-.191-.136-.135a.092.092,0,0,1-.022-.092.088.088,0,0,1,.071-.061l.187-.028.084-.174a.087.087,0,0,1,.158,0l.084.174.188.028a.089.089,0,0,1,.071.061.092.092,0,0,1-.022.092l-.136.135.032.191a.091.091,0,0,1-.035.088A.087.087,0,0,1,154.727,157.363Z" transform="translate(-146.397 -153.396)" fill="#fff"/>
      <path id="Path_26522" data-name="Path 26522" d="M154.727,184.782a.085.085,0,0,1-.041-.01l-.168-.09-.168.09a.087.087,0,0,1-.093-.007.091.091,0,0,1-.035-.088l.032-.191-.136-.135a.092.092,0,0,1-.022-.093.089.089,0,0,1,.071-.061l.187-.028.084-.174a.087.087,0,0,1,.158,0l.084.174.188.028a.089.089,0,0,1,.071.061.092.092,0,0,1-.022.093l-.136.135.032.191a.091.091,0,0,1-.035.088A.086.086,0,0,1,154.727,184.782Z" transform="translate(-146.397 -179.25)" fill="#fff"/>
      <path id="Path_26523" data-name="Path 26523" d="M154.727,212.2a.086.086,0,0,1-.041-.01l-.168-.09-.168.09a.087.087,0,0,1-.093-.007.091.091,0,0,1-.035-.088l.032-.191-.136-.135a.092.092,0,0,1-.022-.093.089.089,0,0,1,.071-.061l.187-.028.084-.174a.087.087,0,0,1,.158,0l.084.174.188.028a.088.088,0,0,1,.071.061.092.092,0,0,1-.022.093l-.136.135.032.191a.091.091,0,0,1-.035.088A.086.086,0,0,1,154.727,212.2Z" transform="translate(-146.397 -205.106)" fill="#fff"/>
      <path id="Path_26524" data-name="Path 26524" d="M188.442,102.521a.084.084,0,0,1-.041-.01l-.168-.09-.168.09a.085.085,0,0,1-.041.01.087.087,0,0,1-.052-.017.091.091,0,0,1-.035-.088l.032-.191-.136-.135a.092.092,0,0,1-.022-.093.089.089,0,0,1,.071-.061l.187-.028.084-.174a.087.087,0,0,1,.158,0l.084.174.187.028a.089.089,0,0,1,.071.061.092.092,0,0,1-.022.093l-.136.135.032.191a.091.091,0,0,1-.035.088A.086.086,0,0,1,188.442,102.521Z" transform="translate(-178.188 -101.683)" fill="#fff"/>
      <path id="Path_26525" data-name="Path 26525" d="M188.442,129.942a.087.087,0,0,1-.041-.01l-.168-.09-.168.09a.086.086,0,0,1-.041.01.088.088,0,0,1-.052-.017.091.091,0,0,1-.035-.088l.032-.191-.136-.135a.092.092,0,0,1-.022-.093.089.089,0,0,1,.071-.061l.187-.028.084-.174a.087.087,0,0,1,.158,0l.084.174.187.028a.089.089,0,0,1,.071.061.092.092,0,0,1-.022.093l-.136.135.032.191a.091.091,0,0,1-.035.088A.086.086,0,0,1,188.442,129.942Z" transform="translate(-178.188 -127.539)" fill="#fff"/>
      <path id="Path_26526" data-name="Path 26526" d="M188.442,157.363a.087.087,0,0,1-.041-.01l-.168-.09-.168.09a.087.087,0,0,1-.093-.007.091.091,0,0,1-.035-.088l.032-.191-.136-.135a.092.092,0,0,1-.022-.092.089.089,0,0,1,.071-.061l.187-.028.084-.174a.087.087,0,0,1,.158,0l.084.174.187.028a.089.089,0,0,1,.071.061.091.091,0,0,1-.022.092l-.136.135.032.191a.091.091,0,0,1-.035.088A.086.086,0,0,1,188.442,157.363Z" transform="translate(-178.188 -153.396)" fill="#fff"/>
      <path id="Path_26527" data-name="Path 26527" d="M188.442,184.782a.085.085,0,0,1-.041-.01l-.168-.09-.168.09a.086.086,0,0,1-.041.01.087.087,0,0,1-.052-.017.091.091,0,0,1-.035-.088l.032-.191-.136-.135a.092.092,0,0,1-.022-.093.089.089,0,0,1,.071-.061l.187-.028.084-.174a.087.087,0,0,1,.158,0l.084.174.187.028a.089.089,0,0,1,.071.061.092.092,0,0,1-.022.093l-.136.135.032.191a.091.091,0,0,1-.035.088A.086.086,0,0,1,188.442,184.782Z" transform="translate(-178.188 -179.25)" fill="#fff"/>
      <path id="Path_26528" data-name="Path 26528" d="M188.442,212.2a.086.086,0,0,1-.041-.01l-.168-.09-.168.09a.087.087,0,0,1-.093-.007.091.091,0,0,1-.035-.088l.032-.191-.136-.135a.092.092,0,0,1-.022-.093.089.089,0,0,1,.071-.061l.187-.028.084-.174a.087.087,0,0,1,.158,0l.084.174.187.028a.089.089,0,0,1,.071.061.092.092,0,0,1-.022.093l-.136.135.032.191a.091.091,0,0,1-.035.088A.085.085,0,0,1,188.442,212.2Z" transform="translate(-178.188 -205.106)" fill="#fff"/>
    </g>
    <rect id="Rectangle_1433" data-name="Rectangle 1433" width="1.876" height="1.855" transform="translate(0 100.95)" opacity="0.1"/>
    <path id="Path_26529" data-name="Path 26529" d="M1.876,393.727v-1.24H0v1.24a.617.617,0,0,0,.615.615H2.491A.617.617,0,0,1,1.876,393.727Z" transform="translate(0 -288.05)" opacity="0.1"/>
  </g>
</svg>
