<svg xmlns="http://www.w3.org/2000/svg" width="10.111" height="16.177" viewBox="0 0 10.111 16.177">
  <g id="phone-gray" transform="translate(-96)">
    <g id="Group_1513" data-name="Group 1513" transform="translate(96)">
      <path id="Path_26457" data-name="Path 26457" d="M105.1,0H97.011A1.013,1.013,0,0,0,96,1.011V15.166a1.012,1.012,0,0,0,1.011,1.011H105.1a1.011,1.011,0,0,0,1.011-1.011V1.011A1.012,1.012,0,0,0,105.1,0Zm-4.044,15.166a1.011,1.011,0,1,1,1.011-1.011A1.011,1.011,0,0,1,101.055,15.166Zm4.044-3.033H97.011V2.022H105.1Z" transform="translate(-96)" fill="#bababa"/>
    </g>
  </g>
</svg>
