<svg xmlns="http://www.w3.org/2000/svg" xmlns:xlink="http://www.w3.org/1999/xlink" width="22.351" height="22.351" viewBox="0 0 22.351 22.351"><defs><style>.a{fill:url(#a);}</style><linearGradient id="a" x1="0.5" x2="0.5" y2="1" gradientUnits="objectBoundingBox"><stop offset="0" stop-color="#fff"/><stop offset="1" stop-color="#959595"/></linearGradient></defs><g transform="translate(0 7.45)"><path class="a" d="M21.885,184.635H21.42v-13.5a.466.466,0,0,0-.466-.466H18.16a.466.466,0,0,0-.466.466v13.5H15.832v-7.916a.466.466,0,0,0-.466-.466H12.572a.466.466,0,0,0-.466.466v7.916H10.244v-9.779a.466.466,0,0,0-.466-.466H6.985a.466.466,0,0,0-.466.466v9.779H4.656v-5.122a.466.466,0,0,0-.466-.466H1.4a.466.466,0,0,0-.466.466v5.122H.466a.466.466,0,0,0,0,.931h21.42a.466.466,0,1,0,0-.931Z" transform="translate(0 -170.666)"/></g><g transform="translate(0.931)"><path class="a" d="M39.959,0a1.851,1.851,0,0,0-1.6,2.8L35.312,5.851a1.828,1.828,0,0,0-2.382.434l-2.288-.653c0-.015,0-.029,0-.045a1.863,1.863,0,1,0-3.725,0,1.84,1.84,0,0,0,.165.758l-2.91,2.322a1.836,1.836,0,0,0-.98-.286,1.863,1.863,0,1,0,1.863,1.863,1.837,1.837,0,0,0-.241-.9L27.67,7.071a1.839,1.839,0,0,0,2.713-.544l2.158.616a1.764,1.764,0,0,0-.032.307A1.863,1.863,0,1,0,35.97,6.51l3.049-3.049a1.835,1.835,0,0,0,.94.265,1.863,1.863,0,0,0,0-3.725Z" transform="translate(-21.333)"/></g></svg>