<svg xmlns="http://www.w3.org/2000/svg" width="22" height="22" viewBox="0 0 22 22"><defs><style>.a{fill:#fff;}.b{fill:#005459;}</style></defs><path class="a" d="M19.422,1.719H18.391V0H16.672V1.719H5.328V0H3.609V1.719H2.578A2.581,2.581,0,0,0,0,4.3V19.422A2.581,2.581,0,0,0,2.578,22H19.422A2.581,2.581,0,0,0,22,19.422V4.3A2.581,2.581,0,0,0,19.422,1.719Zm.859,17.7a.86.86,0,0,1-.859.859H2.578a.86.86,0,0,1-.859-.859V8.078H20.281Zm0-13.062H1.719V4.3a.86.86,0,0,1,.859-.859H3.609V5.156H5.328V3.438H16.672V5.156h1.719V3.438h1.031a.86.86,0,0,1,.859.859Z"/><g transform="translate(4.417 11.083)"><g transform="translate(0 0)"><rect class="b" width="2" height="2" transform="translate(-0.417 -0.083)"/></g></g><g transform="translate(8.083 11.083)"><g transform="translate(0 0)"><rect class="b" width="2" height="2" transform="translate(-0.083 -0.083)"/></g></g><g transform="translate(11.75 11.083)"><g transform="translate(0 0)"><rect class="b" width="2" height="2" transform="translate(0.25 -0.083)"/></g></g><g transform="translate(16.417 11.083)"><g transform="translate(0 0)"><rect class="b" width="2" height="2" transform="translate(-0.417 -0.083)"/></g></g><g transform="translate(4.417 15.75)"><g transform="translate(-0.417 0.25)"><rect class="b" width="2" height="2"/></g></g><g transform="translate(8.083 15.75)"><g transform="translate(-0.083 0.25)"><rect class="b" width="2" height="2"/></g></g><g transform="translate(11.75 15.75)"><g transform="translate(0.25 0.25)"><rect class="b" width="2" height="2"/></g></g><g transform="translate(16.417 15.75)"><g transform="translate(-0.417 0.25)"><rect class="b" width="2" height="2"/></g></g></svg>