<svg xmlns="http://www.w3.org/2000/svg" xmlns:xlink="http://www.w3.org/1999/xlink" width="19.717" height="22" viewBox="0 0 19.717 22"><defs><style>.a{fill:url(#a);}</style><linearGradient id="a" x1="0.5" x2="0.5" y2="1" gradientUnits="objectBoundingBox"><stop offset="0" stop-color="#fff"/><stop offset="1" stop-color="#959595"/></linearGradient></defs><g transform="translate(-26.57)"><g transform="translate(26.57)"><path class="a" d="M117.029,200.859a.859.859,0,0,0-.859-.859h-8.852a.859.859,0,0,0,0,1.719h8.852A.859.859,0,0,0,117.029,200.859Z" transform="translate(-103.026 -191.406)"/><path class="a" d="M107.318,280a.859.859,0,0,0,0,1.719h5.376a.859.859,0,0,0,0-1.719Z" transform="translate(-103.026 -267.969)"/><path class="a" d="M32.882,20.281H30.008a1.721,1.721,0,0,1-1.719-1.719V3.438a1.721,1.721,0,0,1,1.719-1.719H40.573a1.721,1.721,0,0,1,1.719,1.719V8.723a.859.859,0,0,0,1.719,0V3.438A3.441,3.441,0,0,0,40.573,0H30.008A3.441,3.441,0,0,0,26.57,3.438V18.563A3.441,3.441,0,0,0,30.008,22h2.874a.859.859,0,0,0,0-1.719Z" transform="translate(-26.57)"/><path class="a" d="M253.1,272.778a2.581,2.581,0,0,0-3.645,0l-4.718,4.708a.859.859,0,0,0-.215.359l-1.028,3.383a.859.859,0,0,0,1.052,1.078l3.469-.961a.859.859,0,0,0,.378-.22l4.708-4.7A2.581,2.581,0,0,0,253.1,272.778Zm-5.762,6.969-1.745.483.511-1.681,3.184-3.176,1.216,1.216Zm4.548-4.539-.167.166-1.215-1.215.166-.166a.859.859,0,0,1,1.216,1.215Z" transform="translate(-234.138 -260.336)"/><path class="a" d="M116.17,120h-8.852a.859.859,0,0,0,0,1.719h8.852a.859.859,0,0,0,0-1.719Z" transform="translate(-103.026 -114.844)"/></g></g></svg>