<svg id="emoji" xmlns="http://www.w3.org/2000/svg" width="14.49" height="14.491" viewBox="0 0 14.49 14.491">
  <ellipse id="Ellipse_219" data-name="Ellipse 219" cx="1" cy="1" rx="1" ry="1" transform="translate(3.944 4.602)" fill="#a19d9d"/>
  <ellipse id="Ellipse_220" data-name="Ellipse 220" cx="1" cy="1" rx="1" ry="1" transform="translate(8.204 4.602)" fill="#a19d9d"/>
  <path id="Path_1519" data-name="Path 1519" d="M869.745,1261a7.245,7.245,0,1,0,7.245,7.246A7.267,7.267,0,0,0,869.745,1261Zm0,13.5a6.257,6.257,0,1,1,6.257-6.257A6.254,6.254,0,0,1,869.745,1274.5Z" transform="translate(-862.5 -1261)" fill="#a19d9d"/>
  <path id="Path_1520" data-name="Path 1520" d="M876.056,1289.655a4.858,4.858,0,0,1-3.993-2.416.548.548,0,0,1,.162-.7.48.48,0,0,1,.682.168,3.521,3.521,0,0,0,6.3,0,.5.5,0,0,1,.682-.168.54.54,0,0,1,.162.7A4.858,4.858,0,0,1,876.056,1289.655Z" transform="translate(-868.81 -1278.113)" fill="#a19d9d"/>
</svg>
