<svg xmlns="http://www.w3.org/2000/svg" width="16.445" height="12.334" viewBox="0 0 16.445 12.334"><defs><style>.a{fill:#005459;}</style></defs><g transform="translate(0 -64)"><g transform="translate(0 64)"><path class="a" d="M7.035,65c2.257,1.911,6.217,5.274,7.381,6.323a.688.688,0,0,0,.995,0c1.165-1.05,5.125-4.413,7.382-6.324a.342.342,0,0,0,.048-.473A1.361,1.361,0,0,0,21.766,64H8.062a1.36,1.36,0,0,0-1.075.528A.342.342,0,0,0,7.035,65Z" transform="translate(-6.692 -64)"/><path class="a" d="M343.723,126.444a.341.341,0,0,0-.365.05c-1.478,1.253-3.426,2.909-4.895,4.172a.342.342,0,0,0,.009.527c1.365,1.093,3.421,2.6,4.907,3.665a.343.343,0,0,0,.543-.278v-7.825A.342.342,0,0,0,343.723,126.444Z" transform="translate(-327.476 -124.407)"/><path class="a" d="M.543,134.866c1.486-1.069,3.543-2.572,4.907-3.665a.342.342,0,0,0,.009-.527C3.99,129.41,2.042,127.755.564,126.5a.343.343,0,0,0-.564.261v7.825a.342.342,0,0,0,.543.278Z" transform="translate(0 -124.416)"/><path class="a" d="M24.372,288.912c-1.434-1.026-4.077-2.939-5.654-4.219a.343.343,0,0,0-.441.008c-.309.27-.568.5-.752.663a1.387,1.387,0,0,1-1.912,0c-.183-.165-.442-.393-.751-.662a.341.341,0,0,0-.441-.008c-1.572,1.276-4.217,3.191-5.654,4.219a.343.343,0,0,0-.052.512,1.373,1.373,0,0,0,1,.44h13.7a1.375,1.375,0,0,0,1-.44.343.343,0,0,0-.052-.512Z" transform="translate(-8.347 -277.53)"/></g></g></svg>