<svg xmlns="http://www.w3.org/2000/svg" width="16" height="15.762" viewBox="0 0 16 15.762"><defs><style>.a{fill:#005459;}</style></defs><g transform="translate(0 -3.81)"><g transform="translate(0.924 3.81)"><g transform="translate(0 0)"><path class="a" d="M43.407,9.995a1.055,1.055,0,0,0-.585-1.8l-3.5-.509a.211.211,0,0,1-.159-.115L37.6,4.4a1.055,1.055,0,0,0-1.892,0L34.139,7.571a.211.211,0,0,1-.159.115l-3.5.509a1.055,1.055,0,0,0-.585,1.8l2.533,2.469a.211.211,0,0,1,.061.187l-.6,3.487a1.055,1.055,0,0,0,1.531,1.112L36.552,15.6a.211.211,0,0,1,.2,0L39.88,17.25a1.055,1.055,0,0,0,1.531-1.112l-.6-3.487a.211.211,0,0,1,.061-.187Zm-3.426,2.8.6,3.487a.211.211,0,0,1-.306.222l-3.131-1.646a1.055,1.055,0,0,0-.982,0L33.028,16.5a.211.211,0,0,1-.306-.222l.6-3.487a1.055,1.055,0,0,0-.3-.934L30.483,9.39a.211.211,0,0,1,.117-.36l3.5-.509a1.055,1.055,0,0,0,.795-.577l1.566-3.172a.211.211,0,0,1,.378,0h0l1.566,3.172a1.055,1.055,0,0,0,.794.577l3.5.509a.211.211,0,0,1,.117.36L40.285,11.86A1.055,1.055,0,0,0,39.981,12.794Z" transform="translate(-29.574 -3.81)"/></g></g><g transform="translate(11.813 4.317)"><g transform="translate(0 0)"><path class="a" d="M379.119,20.126a.422.422,0,0,0-.59.093l-.448.617a.422.422,0,0,0,.683.5l.448-.617A.422.422,0,0,0,379.119,20.126Z" transform="translate(-378.001 -20.045)"/></g></g><g transform="translate(2.894 4.315)"><g transform="translate(0 0)"><path class="a" d="M93.8,20.757l-.448-.617a.422.422,0,1,0-.683.5l.448.617a.422.422,0,1,0,.683-.5Z" transform="translate(-92.59 -19.966)"/></g></g><g transform="translate(0 12.988)"><g transform="translate(0)"><path class="a" d="M1.549,297.785a.422.422,0,0,0-.532-.271l-.725.236a.422.422,0,1,0,.261.8l.725-.236A.422.422,0,0,0,1.549,297.785Z" transform="translate(0 -297.493)"/></g></g><g transform="translate(7.579 17.966)"><path class="a" d="M242.921,456.786a.422.422,0,0,0-.422.422v.762a.422.422,0,1,0,.844,0v-.762A.422.422,0,0,0,242.921,456.786Z" transform="translate(-242.499 -456.786)"/></g><g transform="translate(14.431 12.989)"><path class="a" d="M463.061,297.769l-.725-.236a.422.422,0,1,0-.261.8l.725.236a.422.422,0,0,0,.261-.8Z" transform="translate(-461.783 -297.513)"/></g></g></svg>