<svg id="gif" xmlns="http://www.w3.org/2000/svg" width="16.903" height="12.62" viewBox="0 0 16.903 12.62">
  <path id="Path_1911" data-name="Path 1911" d="M6.332-4.4H4.358a.521.521,0,0,0-.582.582v.247a.521.521,0,0,0,.582.582h.9V-.926C5.257.167,4.763.537,3.847.537S2.437.167,2.437-.926V-7.694c0-1.093.494-1.463,1.41-1.463s1.41.37,1.41,1.463v.811a.529.529,0,0,0,.582.582h.494a.521.521,0,0,0,.582-.582V-8.011c0-1.78-1.128-2.609-3-2.609H3.776c-1.868,0-3,.828-3,2.609v7.4C.78,1.259,1.908,2,3.776,2h.141c1.868,0,3-.758,3-2.609V-3.817A.514.514,0,0,0,6.332-4.4Zm4.177,5.675V-9.9a.529.529,0,0,0-.582-.582H9.434a.521.521,0,0,0-.582.582V1.277a.521.521,0,0,0,.582.582h.494A.529.529,0,0,0,10.509,1.277Zm2.626.582h.494a.529.529,0,0,0,.582-.582V-3.57h2.344a.521.521,0,0,0,.582-.582v-.317a.521.521,0,0,0-.582-.582H14.21V-9.016H17.1a.514.514,0,0,0,.582-.582v-.3a.521.521,0,0,0-.582-.582H13.135a.521.521,0,0,0-.582.582V1.277A.521.521,0,0,0,13.135,1.859Z" transform="translate(-0.78 10.62)" fill="#a19d9d"/>
</svg>
