<svg xmlns="http://www.w3.org/2000/svg" xmlns:xlink="http://www.w3.org/1999/xlink" width="21.89" height="22.006" viewBox="0 0 21.89 22.006"><defs><style>.a{fill:url(#a);}</style><linearGradient id="a" x1="0.5" x2="0.5" y2="1" gradientUnits="objectBoundingBox"><stop offset="0" stop-color="#fff"/><stop offset="1" stop-color="#959595"/></linearGradient></defs><g transform="translate(-1.352 0)"><g transform="translate(1.352 0)"><path class="a" d="M23.018,10.091,12.808.206a.733.733,0,0,0-1.02,0L1.576,10.091a.734.734,0,0,0,.51,1.261H4.648v9.921a.734.734,0,0,0,.734.734h3.79v-7.55a.734.734,0,0,1,.734-.734h4.784a.734.734,0,0,1,.734.734v7.55h3.79a.734.734,0,0,0,.734-.734V11.351h2.562A.734.734,0,0,0,23.018,10.091Z" transform="translate(-1.352 0)"/></g></g></svg>