<svg xmlns="http://www.w3.org/2000/svg" width="23.436" height="21.348" viewBox="0 0 23.436 21.348"><defs><style>.a{fill:#005459;}</style></defs><path class="a" d="M17.931,21.207a1.944,1.944,0,0,1-.894,1.459c-.143.12-.409.339-.408.421a.572.572,0,0,1-.576.577h0a.574.574,0,0,1-.581-.568,1.74,1.74,0,0,1,.823-1.316c.29-.243.479-.414.479-.571a.575.575,0,0,0-1.15,0,.581.581,0,1,1-1.162,0,1.737,1.737,0,0,1,3.474,0ZM16.063,24.2a.57.57,0,0,0-.568.581v0a.568.568,0,0,0,.568.579.582.582,0,0,0,0-1.164ZM4.351,28.247a.581.581,0,0,0,0,1.162H4.4a.581.581,0,0,0,0-1.162Zm2.019,0a.581.581,0,1,0,0,1.162h.048a.581.581,0,0,0,0-1.162Zm17.066-9.281v6.54a2.793,2.793,0,0,1-2.79,2.805H13.111c-.147,0-.269,0-.37,0s-.226,0-.273,0c-.049.032-.168.141-.283.247l-.153.139L9.9,30.64a.595.595,0,0,1-.991-.429v-6.16H2.823A1.665,1.665,0,0,0,1.162,25.7v6.54a1.639,1.639,0,0,0,1.661,1.622H11.24a.583.583,0,0,1,.388.164l1.737,1.6V30.107a.581.581,0,0,1,1.162,0v6.84a.573.573,0,0,1-.342.529.557.557,0,0,1-.23.046.587.587,0,0,1-.392-.158l-2.547-2.337H2.823A2.8,2.8,0,0,1,0,32.243V25.7a2.828,2.828,0,0,1,2.823-2.814H8.91V18.966a2.819,2.819,0,0,1,2.832-2.792h8.9A2.782,2.782,0,0,1,23.436,18.966Zm-1.162,0a1.619,1.619,0,0,0-1.628-1.63h-8.9a1.655,1.655,0,0,0-1.67,1.63v9.928l1.168-1.056c.054-.049.115-.095.159-.135a1.467,1.467,0,0,1,1.366-.556c.095,0,.208,0,.346,0h7.536a1.63,1.63,0,0,0,1.628-1.643v-6.54Z" transform="translate(0 -16.174)"/></svg>