<svg xmlns="http://www.w3.org/2000/svg" width="11.813" height="16.308" viewBox="0 0 11.813 16.308"><defs><style>.a{fill:#005459;}</style></defs><path class="a" d="M76.479,0a5.913,5.913,0,0,0-5.906,5.906c0,4.042,5.286,9.975,5.511,10.226a.532.532,0,0,0,.791,0c.225-.251,5.511-6.184,5.511-10.226A5.913,5.913,0,0,0,76.479,0Zm0,14.962C74.7,12.849,71.637,8.68,71.637,5.906a4.843,4.843,0,1,1,9.685,0C81.322,8.68,78.259,12.848,76.479,14.962Z" transform="translate(-70.573)"/><g transform="translate(2.935 2.935)"><path class="a" d="M165.68,92.134a2.972,2.972,0,1,0,2.972,2.972A2.975,2.975,0,0,0,165.68,92.134Zm0,4.88a1.908,1.908,0,1,1,1.908-1.908A1.91,1.91,0,0,1,165.68,97.014Z" transform="translate(-162.708 -92.134)"/></g></svg>