<svg xmlns="http://www.w3.org/2000/svg" width="19.923" height="21.014" viewBox="0 0 19.923 21.014"><defs><style>.a{fill:#009ca6;}</style></defs><path class="a" d="M19.14,16.4c-1.791-1.642-3.448-3.958-3.448-9.742A5.916,5.916,0,0,0,9.962.58,5.917,5.917,0,0,0,4.231,6.654c0,5.789-1.657,8.1-3.449,9.744A2.469,2.469,0,0,0,0,18.211a.672.672,0,0,0,.652.691H6.838a3.248,3.248,0,0,0,3.124,2.692A3.248,3.248,0,0,0,13.086,18.9h6.186a.672.672,0,0,0,.652-.691A2.455,2.455,0,0,0,19.14,16.4ZM9.962,20.212A1.9,1.9,0,0,1,8.19,18.9h3.543A1.9,1.9,0,0,1,9.962,20.212ZM1.56,17.52a.988.988,0,0,1,.076-.078c2.733-2.5,3.9-5.727,3.9-10.788A4.571,4.571,0,0,1,9.962,1.962a4.57,4.57,0,0,1,4.426,4.692c0,5.056,1.166,8.282,3.9,10.788a1,1,0,0,1,.076.077Z" transform="translate(0 -0.58)"/></svg>