<svg xmlns="http://www.w3.org/2000/svg" width="13.982" height="13.399" viewBox="0 0 13.982 13.399"><defs><style>.a{fill:#005459;}</style></defs><g transform="translate(0 0)"><path class="a" d="M8.75,17.612v2.7a.437.437,0,0,0,.789.259l1.581-2.151Z" transform="translate(-3.653 -7.352)"/><path class="a" d="M13.8.081a.437.437,0,0,0-.456-.031L.235,6.895A.437.437,0,0,0,.3,7.7L3.939,8.941,11.7,2.306,5.695,9.541,11.8,11.628a.447.447,0,0,0,.141.023.437.437,0,0,0,.432-.372L13.977.5A.438.438,0,0,0,13.8.081Z" transform="translate(0 0)"/></g></svg>