<svg xmlns="http://www.w3.org/2000/svg" xmlns:xlink="http://www.w3.org/1999/xlink" width="18.666" height="18.666" viewBox="0 0 18.666 18.666"><defs><style>.a{fill:url(#a);}</style><linearGradient id="a" x1="0.5" x2="0.5" y2="1" gradientUnits="objectBoundingBox"><stop offset="0" stop-color="#fff"/><stop offset="1" stop-color="#959595"/></linearGradient></defs><g transform="translate(-0.003 0)"><g transform="translate(0.003 0)"><g transform="translate(0 0)"><path class="a" d="M17.4,15.272h-2.97a3.394,3.394,0,1,1,0-6.788H17.4a.424.424,0,0,0,.424-.424V6.788A1.693,1.693,0,0,0,16.259,5.1L13.822.849a1.679,1.679,0,0,0-2.3-.621L3.167,5.091H1.7A1.7,1.7,0,0,0,0,6.788V16.969a1.7,1.7,0,0,0,1.7,1.7H16.124a1.7,1.7,0,0,0,1.7-1.7V15.7A.424.424,0,0,0,17.4,15.272Zm-3.048-11.8.924,1.615h-3.7Zm-9.5,1.615L11.946.962a.82.82,0,0,1,.63-.085.832.832,0,0,1,.51.394v0L6.528,5.091Z" transform="translate(-0.003 0)"/><path class="a" d="M304.185,234.674h-2.97a2.545,2.545,0,0,0,0,5.091h2.97a1.274,1.274,0,0,0,1.273-1.273v-2.545A1.274,1.274,0,0,0,304.185,234.674Zm-2.97,3.394a.848.848,0,1,1,.848-.848A.85.85,0,0,1,301.215,238.068Z" transform="translate(-286.792 -225.341)"/></g></g></g></svg>